<svg xmlns="http://www.w3.org/2000/svg" viewBox="0 0 16 16">
  <defs>
    <style>
      .cls-1 {
        opacity: 0.5;
      }

      .cls-2 {
        fill: #92278f;
      }
    </style>
  </defs>
  <g id="Icon_Access_Time_Filled" data-name="Icon / Access Time / Filled" class="cls-1" transform="translate(-529 -1400)">
    <path id="Union_2" data-name="Union 2" class="cls-2" d="M-6549,4337a8,8,0,0,1,7.991-8,8,8,0,0,1,8.009,8,8,8,0,0,1-8.009,8A8,8,0,0,1-6549,4337Zm1.6,0a6.4,6.4,0,0,0,6.4,6.4,6.4,6.4,0,0,0,6.4-6.4,6.4,6.4,0,0,0-6.4-6.4A6.4,6.4,0,0,0-6547.4,4337Zm5.6.8V4333h1.2v4.2l3.6,2.137-.6.984Z" transform="translate(7078 -2929)"/>
  </g>
</svg>
