<svg xmlns="http://www.w3.org/2000/svg" viewBox="0 0 16 16">
  <defs>
    <style>
      .cls-1 {
        opacity: 0.5;
      }

      .cls-2 {
        fill: #92278f;
      }
    </style>
  </defs>
  <g id="Icon_Circle_Filled" data-name="Icon / Circle / Filled" class="cls-1" transform="translate(-752 -384)">
    <path id="shape" class="cls-2" d="M58-38a8,8,0,0,0-8,8,8,8,0,0,0,8,8,8,8,0,0,0,8-8A8,8,0,0,0,58-38Zm0,2.4a2.4,2.4,0,0,1,2.4,2.4A2.4,2.4,0,0,1,58-30.8a2.4,2.4,0,0,1-2.4-2.4A2.4,2.4,0,0,1,58-35.6Zm0,11.36a5.76,5.76,0,0,1-4.8-2.576c.024-1.592,3.2-2.464,4.8-2.464s4.776.872,4.8,2.464A5.76,5.76,0,0,1,58-24.24Z" transform="translate(702 422)"/>
  </g>
</svg>
