<svg xmlns="http://www.w3.org/2000/svg" viewBox="0 0 36.636 36.446">
  <defs>
    <style>
      .cls-1 {
        fill: #92278f;
      }
    </style>
  </defs>
  <g id="Symbol_AI" transform="translate(-829.682 -1048.825)">
    <path id="Path_86" data-name="Path 86" class="cls-1" d="M18.352,18.23V31.643a4.631,4.631,0,0,1-5.145,4.775,10.607,10.607,0,0,1-2.492-.511,4.765,4.765,0,0,1-3.243-3.8,1,1,0,0,0-.871-.891,5.6,5.6,0,0,1-3.974-7.207.734.734,0,0,0-.31-.991,5.632,5.632,0,0,1-.25-8.889.761.761,0,0,0,.25-1.081A5.625,5.625,0,0,1,6.77,5.177c.49-.06.621-.32.7-.731a5.66,5.66,0,0,1,10.41-1.682,3.351,3.351,0,0,1,.49,1.752c-.02,4.565-.01,9.139-.02,13.714ZM16.991,6.648h.04a11.465,11.465,0,0,0-.15-2.282,4.1,4.1,0,0,0-7.968.761,4.36,4.36,0,0,0,.521,2.6.8.8,0,0,1-.25,1.1.774.774,0,0,1-1.091-.38,7.73,7.73,0,0,1-.5-1.141c-.22-.651-.26-.691-.921-.561a4.1,4.1,0,0,0-3.183,4.945,4.242,4.242,0,0,0,1.962,2.663.791.791,0,0,1,.37,1.1.8.8,0,0,1-1.181.21,2.4,2.4,0,0,1-.611-.43c-.32-.32-.591-.24-.911.01a4.133,4.133,0,0,0-.4,6.046c.761.8.841.8,1.662.11a5.058,5.058,0,0,1,2.593-1.211c.561-.08.911.13,1.011.581.09.42-.18.771-.711.921-.11.03-.23.05-.34.08a4.111,4.111,0,0,0-.19,7.868c.6.19.661.17.851-.43A5.531,5.531,0,0,1,10.544,25.8a1.042,1.042,0,0,1,.661-.17c.27.08.631.26.711.48a1.167,1.167,0,0,1-.24.821c-.09.15-.33.2-.511.29A4.109,4.109,0,0,0,8.923,31.4a3.776,3.776,0,0,0,2.953,3.333,6.254,6.254,0,0,0,1.882.16,3.349,3.349,0,0,0,3.233-3.473V11.8c0-1.081,0-1.071-.981-1.471a5.667,5.667,0,0,1-2.983-2.7.673.673,0,0,1,.1-.911,1.121,1.121,0,0,1,.811-.19c.21.05.41.32.541.541A4.2,4.2,0,0,0,16.43,8.8c.44.19.541.12.551-.35C17,7.85,16.991,7.249,16.991,6.648Z" transform="translate(829.667 1048.834)"/>
    <path id="Path_87" data-name="Path 87" class="cls-1" d="M213.2,195.6c1.431,0,2.873-.01,4.3.01a.928.928,0,0,0,.9-.49c.38-.631.781-1.251,1.2-1.842a.819.819,0,0,0,.03-1.071,2.323,2.323,0,0,1,3.854-2.583,2.219,2.219,0,0,1,.24,2.452,2.091,2.091,0,0,1-2.052,1.261,1.141,1.141,0,0,0-1.191.651c-.47.8-.991,1.592-1.532,2.342a1.019,1.019,0,0,1-.721.4c-3.153.03-6.306.01-9.459.02-.4,0-.581-.15-.581-.561,0-.43.17-.6.6-.6,1.471.02,2.933.01,4.4.01Z" transform="translate(642.321 879.018)"/>
    <path id="Path_88" data-name="Path 88" class="cls-1" d="M210.162,94.961c2.112-.04,1.471.29,2.633-1.431.631-.941,1.251-1.892,1.852-2.853a.945.945,0,0,1,.941-.5c.731.03,1.471-.01,2.2.01a.891.891,0,0,0,.941-.551,2.138,2.138,0,0,1,2.192-1.191,2.163,2.163,0,0,1,1.972,1.391,2.242,2.242,0,0,1-.36,2.442,2.3,2.3,0,0,1-3.794-.39.912.912,0,0,0-.981-.561,14.248,14.248,0,0,1-1.6,0,.88.88,0,0,0-.861.47c-.8,1.251-1.622,2.482-2.412,3.744a1.018,1.018,0,0,1-.981.531c-.981-.02-1.972-.01-2.953-.01-.41,0-.681-.1-.661-.591s.32-.521.681-.511Z" transform="translate(642.24 969.24)"/>
    <path id="Path_89" data-name="Path 89" class="cls-1" d="M211.4,300.012c.8,0,1.6-.02,2.4.01a.783.783,0,0,0,.821-.49,2.322,2.322,0,1,1,2.593,3.343,2.217,2.217,0,0,1-2.512-1.081,1.07,1.07,0,0,0-1.141-.631c-1.532.02-3.063,0-4.595.01-.41,0-.661-.1-.671-.581s.25-.581.671-.581C209.771,300.022,210.592,300.012,211.4,300.012Z" transform="translate(642.231 780.425)"/>
    <path id="Path_90" data-name="Path 90" class="cls-1" d="M213.545,37.6a2.317,2.317,0,0,1,2.312,1.952,2.367,2.367,0,0,1-1.542,2.573,2.256,2.256,0,0,1-2.783-1.051.979.979,0,0,0-1.061-.6c-.561.03-1.131,0-1.7.01-.4.01-.571-.17-.571-.571s.15-.581.561-.581c.651.01,1.3-.01,1.952.01a.708.708,0,0,0,.741-.44A2.2,2.2,0,0,1,213.545,37.6Z" transform="translate(642.321 1014.99)"/>
    <path id="Path_91" data-name="Path 91" class="cls-1" d="M213.405,193.142a2.109,2.109,0,0,1-1.812-1.231.879.879,0,0,0-.941-.551c-.6.02-1.2,0-1.8,0-.37,0-.551-.16-.551-.541s.16-.561.541-.561c.581,0,1.171-.02,1.752,0a.945.945,0,0,0,1.021-.581,2.265,2.265,0,0,1,2.823-1.071,2.36,2.36,0,0,1,1.511,2.543A2.411,2.411,0,0,1,213.405,193.142Z" transform="translate(642.231 879.227)"/>
    <path id="Path_92" data-name="Path 92" class="cls-1" d="M94.9,135.649a14.079,14.079,0,0,1,.841,2.242,4.541,4.541,0,0,1-1.592,4.524.567.567,0,0,1-.881-.05.618.618,0,0,1,.03-.9c.07-.07.15-.14.22-.2a3.443,3.443,0,0,0-.23-5.165c-.28-.23-.621-.38-.931-.591a.584.584,0,0,1-.26-.811.625.625,0,0,1,.841-.33.584.584,0,0,1,.18.08,1.712,1.712,0,0,0,2.242-.29,7.406,7.406,0,0,0,1.021-1.431.888.888,0,0,0,.08-.29c.08-.34.26-.621.651-.521.41.1.44.43.36.8a3.881,3.881,0,0,1-2.1,2.7C95.191,135.509,95.031,135.589,94.9,135.649Z" transform="translate(746.872 930.134)"/>
  </g>
</svg>
